<svg width="32" height="32" fill="none" xmlns="http://www.w3.org/2000/svg"><path d="M16.03 31.807c8.695 0 15.745-7.05 15.745-15.746 0-8.696-7.05-15.746-15.746-15.746C7.333.315.284 7.365.284 16.061c0 8.696 7.05 15.746 15.745 15.746z" fill="#fff"/><path d="M26.05 18.924c0-5.534-4.487-10.02-10.02-10.02-5.535 0-10.02 4.486-10.02 10.02h2.862a7.157 7.157 0 1114.314 0" fill="#000" fill-opacity=".1"/><path d="M16.745 23.504a5.44 5.44 0 100-10.878 5.44 5.44 0 000 10.878z" fill="#000" fill-opacity=".1"/><path d="M16.03 21.93a5.869 5.869 0 100-11.738 5.869 5.869 0 000 11.738z" fill="url(#paint0_linear)"/><path d="M30.343 8.903C26.403.975 16.78-2.258 8.851 1.683a16.03 16.03 0 00-6.134 5.36l6.441 11.165a7.157 7.157 0 016.728-9.305" fill="url(#paint1_linear)"/><path d="M2.717 7.043c-4.93 7.355-2.965 17.314 4.39 22.244a16.033 16.033 0 007.634 2.664l6.728-11.452a7.157 7.157 0 01-12.31-2.29" fill="url(#paint2_linear)"/><path d="M14.74 31.95c8.83.668 16.528-5.948 17.196-14.777a16.029 16.029 0 00-1.593-8.269H15.886A7.157 7.157 0 0121.468 20.5" fill="url(#paint3_linear)"/><path d="M2.717 7.043L9.158 18.21a7.157 7.157 0 01.287-4.867L3.003 6.614" fill="url(#paint4_linear)"/><path d="M14.74 31.95l6.73-11.45a7.159 7.159 0 01-4.151 2.433l-2.863 9.018" fill="url(#paint5_linear)"/><path d="M30.343 8.904H15.886a7.157 7.157 0 015.582 2.72l9.162-2.29" fill="url(#paint6_linear)"/><defs><linearGradient id="paint0_linear" x1="16.022" y1="10.209" x2="16.022" y2="21.934" gradientUnits="userSpaceOnUse"><stop stop-color="#81B4E0"/><stop offset="1" stop-color="#0C5A94"/></linearGradient><linearGradient id="paint1_linear" x1="16.53" y1=".028" x2="16.53" y2="13.055" gradientUnits="userSpaceOnUse"><stop stop-color="#F06B59"/><stop offset="1" stop-color="#DF2227"/></linearGradient><linearGradient id="paint2_linear" x1="3.901" y1="27.457" x2="10.485" y2="16.578" gradientUnits="userSpaceOnUse"><stop stop-color="#388B41"/><stop offset="1" stop-color="#4CB749"/></linearGradient><linearGradient id="paint3_linear" x1="25.958" y1="28.614" x2="18.945" y2="11.723" gradientUnits="userSpaceOnUse"><stop stop-color="#E4B022"/><stop offset=".3" stop-color="#FCD209"/></linearGradient><linearGradient id="paint4_linear" x1="6.081" y1="17.779" x2="6.081" y2="6.328" gradientUnits="userSpaceOnUse"><stop stop-opacity=".15"/><stop offset=".3" stop-opacity=".06"/><stop offset="1" stop-opacity=".03"/></linearGradient><linearGradient id="paint5_linear" x1="21.887" y1="21.477" x2="14.014" y2="29.493" gradientUnits="userSpaceOnUse"><stop stop-opacity=".15"/><stop offset=".3" stop-opacity=".06"/><stop offset="1" stop-opacity=".03"/></linearGradient><linearGradient id="paint6_linear" x1="21.773" y1="23.783" x2="22.918" y2="12.475" gradientUnits="userSpaceOnUse"><stop stop-opacity=".15"/><stop offset=".3" stop-opacity=".06"/><stop offset="1" stop-opacity=".03"/></linearGradient></defs></svg>