<svg width="32" height="32" fill="none" xmlns="http://www.w3.org/2000/svg"><g clip-path="url(#clip0)"><path d="M16 .002c-8.837 0-16 7.164-16 16 0 8.58 6.755 15.583 15.237 15.98a15.942 15.942 0 0011.425-4.053c-1.875 1.244-4.068 1.96-6.411 1.96-3.81 0-7.223-1.89-9.518-4.871-1.769-2.088-2.915-5.175-2.993-8.64v-.753c.078-3.464 1.224-6.552 2.993-8.64 2.295-2.98 5.707-4.87 9.517-4.87 2.344 0 4.537.715 6.413 1.96A15.939 15.939 0 0016.059.001H16z" fill="url(#paint0_linear)"/><path d="M10.733 6.986c1.468-1.733 3.364-2.778 5.436-2.778 4.658 0 8.433 5.28 8.433 11.795 0 6.514-3.775 11.794-8.433 11.794-2.072 0-3.968-1.044-5.436-2.778C13.028 28 16.44 29.89 20.252 29.89c2.343 0 4.536-.716 6.411-1.96A15.96 15.96 0 0032 16.004a15.96 15.96 0 00-5.336-11.927c-1.875-1.245-4.068-1.96-6.412-1.96-3.81 0-7.222 1.89-9.517 4.87" fill="url(#paint1_linear)"/></g><defs><linearGradient id="paint0_linear" x1="13.332" y1=".524" x2="13.332" y2="31.536" gradientUnits="userSpaceOnUse"><stop stop-color="#FF1B2D"/><stop offset=".3" stop-color="#FF1B2D"/><stop offset=".614" stop-color="#FF1B2D"/><stop offset="1" stop-color="#A70014"/></linearGradient><linearGradient id="paint1_linear" x1="21.366" y1="2.352" x2="21.366" y2="29.781" gradientUnits="userSpaceOnUse"><stop stop-color="#9C0000"/><stop offset=".7" stop-color="#FF4B4B"/><stop offset="1" stop-color="#FF4B4B"/></linearGradient><clipPath id="clip0"><path fill="#fff" d="M0 0h32v32H0z"/></clipPath></defs></svg>