<svg width="133" height="134" fill="none" xmlns="http://www.w3.org/2000/svg"><path d="M133 0H0v134h133V0z" fill="#fff"/><path d="M16.22 13.073h-3.244v3.268h3.243v-3.268zm3.243 0H16.22v3.268h3.244v-3.268z" fill="#000"/><path d="M22.707 13.073h-3.244v3.268h3.244v-3.268zm3.244 0h-3.244v3.268h3.244v-3.268zm3.244 0h-3.244v3.268h3.244v-3.268zm3.244 0h-3.244v3.268h3.244v-3.268zm3.244 0h-3.244v3.268h3.244v-3.268zm9.732 0H42.17v3.268h3.244v-3.268zm19.463 0h-3.244v3.268h3.244v-3.268zm3.244 0h-3.244v3.268h3.244v-3.268zm6.488 0h-3.244v3.268h3.244v-3.268zm3.244 0H74.61v3.268h3.244v-3.268zm3.243 0h-3.243v3.268h3.243v-3.268zm9.733 0h-3.245v3.268h3.244v-3.268zm3.243 0H90.83v3.268h3.244v-3.268zm6.488 0h-3.244v3.268h3.244v-3.268zm3.244 0h-3.244v3.268h3.244v-3.268zm3.244 0h-3.244v3.268h3.244v-3.268zm3.244 0h-3.244v3.268h3.244v-3.268zm3.244 0h-3.244v3.268h3.244v-3.268zm3.243 0h-3.243v3.268h3.243v-3.268zm3.244 0h-3.244v3.268h3.244v-3.268zM16.22 16.341h-3.244v3.269h3.243v-3.27z" fill="#000"/><path d="M35.683 16.341h-3.244v3.269h3.244v-3.27zm6.487 0h-3.243v3.269h3.244v-3.27z" fill="#000"/><path d="M45.415 16.341H42.17v3.269h3.244v-3.27zm6.488 0h-3.244v3.269h3.244v-3.27z" fill="#000"/><path d="M55.146 16.341h-3.244v3.269h3.244v-3.27zm32.439 0h-3.243v3.269h3.243v-3.27zm12.976 0h-3.244v3.269h3.244v-3.27zm19.463 0h-3.244v3.269h3.244v-3.27zM16.22 19.61h-3.244v3.268h3.243V19.61zm6.487 0h-3.244v3.268h3.244V19.61zm3.244 0h-3.244v3.268h3.244V19.61zm3.244 0h-3.244v3.268h3.244V19.61zm6.488 0h-3.244v3.268h3.244V19.61zm9.732 0H42.17v3.268h3.244V19.61zm3.243 0h-3.243v3.268h3.243V19.61zm3.245 0h-3.244v3.268h3.244V19.61zm9.731 0H58.39v3.268h3.244V19.61zm6.488 0h-3.244v3.268h3.244V19.61zm9.732 0H74.61v3.268h3.244V19.61zm3.243 0h-3.243v3.268h3.243V19.61zm3.244 0h-3.243v3.268h3.243V19.61zm9.732 0H90.83v3.268h3.244V19.61zm6.488 0h-3.244v3.268h3.244V19.61zm6.488 0h-3.244v3.268h3.244V19.61zm3.244 0h-3.244v3.268h3.244V19.61zm3.244 0h-3.244v3.268h3.244V19.61zm6.487 0h-3.244v3.268h3.244V19.61zM16.22 22.878h-3.244v3.268h3.243v-3.268zm6.487 0h-3.244v3.268h3.244v-3.268zm3.244 0h-3.244v3.268h3.244v-3.268zm3.244 0h-3.244v3.268h3.244v-3.268zm6.488 0h-3.244v3.268h3.244v-3.268zm6.487 0h-3.243v3.268h3.244v-3.268z" fill="#000"/><path d="M45.415 22.878H42.17v3.268h3.244v-3.268zm6.488 0h-3.244v3.268h3.244v-3.268zm16.219 0h-3.244v3.268h3.244v-3.268zm3.244 0h-3.244v3.268h3.244v-3.268zm3.244 0h-3.244v3.268h3.244v-3.268zm6.487 0h-3.243v3.268h3.243v-3.268zm6.488 0h-3.243v3.268h3.243v-3.268zm6.488 0H90.83v3.268h3.244v-3.268zm6.488 0h-3.244v3.268h3.244v-3.268zm6.488 0h-3.244v3.268h3.244v-3.268zm3.244 0h-3.244v3.268h3.244v-3.268zm3.244 0h-3.244v3.268h3.244v-3.268zm6.487 0h-3.244v3.268h3.244v-3.268zM16.22 26.146h-3.244v3.269h3.243v-3.268zm6.487 0h-3.244v3.269h3.244v-3.268zm3.244 0h-3.244v3.269h3.244v-3.268zm3.244 0h-3.244v3.269h3.244v-3.268zm6.488 0h-3.244v3.269h3.244v-3.268zm12.975 0h-3.243v3.269h3.243v-3.268zm6.488 0h-3.244v3.269h3.244v-3.268zm3.244 0h-3.244v3.269h3.244v-3.268zm3.244 0H58.39v3.269h3.244v-3.268zm3.244 0h-3.244v3.269h3.244v-3.268zm9.732 0h-3.244v3.269h3.244v-3.268zm3.244 0H74.61v3.269h3.244v-3.268zm3.243 0h-3.243v3.269h3.243v-3.268zm6.488 0h-3.243v3.269h3.243v-3.268zm3.245 0h-3.245v3.269h3.244v-3.268zm9.731 0h-3.244v3.269h3.244v-3.268zm6.488 0h-3.244v3.269h3.244v-3.268zm3.244 0h-3.244v3.269h3.244v-3.268zm3.244 0h-3.244v3.269h3.244v-3.268zm6.487 0h-3.244v3.269h3.244v-3.268zM16.22 29.415h-3.244v3.268h3.243v-3.268zm19.463 0h-3.244v3.268h3.244v-3.268zm6.487 0h-3.243v3.268h3.244v-3.268zm6.488 0h-3.243v3.268h3.243v-3.268zm9.732 0h-3.244v3.268h3.244v-3.268zm3.244 0H58.39v3.268h3.244v-3.268zm3.244 0h-3.244v3.268h3.244v-3.268zm3.244 0h-3.244v3.268h3.244v-3.268zm6.488 0h-3.244v3.268h3.244v-3.268zm9.731 0h-3.243v3.268h3.243v-3.268zm16.22 0h-3.244v3.268h3.244v-3.268zm19.463 0h-3.244v3.268h3.244v-3.268zM16.22 32.683h-3.244v3.268h3.243v-3.268zm3.243 0H16.22v3.268h3.244v-3.268z" fill="#000"/><path d="M22.707 32.683h-3.244v3.268h3.244v-3.268zm3.244 0h-3.244v3.268h3.244v-3.268zm3.244 0h-3.244v3.268h3.244v-3.268zm3.244 0h-3.244v3.268h3.244v-3.268zm3.244 0h-3.244v3.268h3.244v-3.268zm6.487 0h-3.243v3.268h3.244v-3.268zm6.488 0h-3.243v3.268h3.243v-3.268zm6.488 0h-3.244v3.268h3.244v-3.268zm6.488 0H58.39v3.268h3.244v-3.268zm6.488 0h-3.244v3.268h3.244v-3.268zm6.488 0h-3.244v3.268h3.244v-3.268zm6.487 0h-3.243v3.268h3.243v-3.268zm6.488 0h-3.243v3.268h3.243v-3.268zm6.488 0H90.83v3.268h3.244v-3.268zm6.488 0h-3.244v3.268h3.244v-3.268zm3.244 0h-3.244v3.268h3.244v-3.268zm3.244 0h-3.244v3.268h3.244v-3.268zm3.244 0h-3.244v3.268h3.244v-3.268zm3.244 0h-3.244v3.268h3.244v-3.268zm3.243 0h-3.243v3.268h3.243v-3.268zm3.244 0h-3.244v3.268h3.244v-3.268zm-64.878 3.268h-3.244v3.268h3.244v-3.268zm3.244 0h-3.244v3.268h3.244v-3.268zm6.488 0h-3.244v3.268h3.244v-3.268zm9.732 0h-3.244v3.268h3.244v-3.268zm3.244 0H74.61v3.268h3.244v-3.268zm6.487 0h-3.243v3.268h3.243v-3.268zm3.244 0h-3.243v3.268h3.243v-3.268zm3.245 0h-3.245v3.268h3.244v-3.268zm3.243 0H90.83v3.268h3.244v-3.268zM16.22 39.22h-3.244v3.268h3.243V39.22zm3.243 0H16.22v3.268h3.244V39.22z" fill="#000"/><path d="M22.707 39.22h-3.244v3.268h3.244V39.22zm3.244 0h-3.244v3.268h3.244V39.22zm3.244 0h-3.244v3.268h3.244V39.22zm6.488 0h-3.244v3.268h3.244V39.22zm3.244 0h-3.244v3.268h3.244V39.22zm3.243 0h-3.243v3.268h3.244V39.22z" fill="#000"/><path d="M45.415 39.22H42.17v3.268h3.244V39.22zm3.243 0h-3.243v3.268h3.243V39.22zm6.488 0h-3.244v3.268h3.244V39.22zm6.488 0H58.39v3.268h3.244V39.22zm3.244 0h-3.244v3.268h3.244V39.22zm9.732 0h-3.244v3.268h3.244V39.22zm6.487 0h-3.243v3.268h3.243V39.22zm6.488 0h-3.243v3.268h3.243V39.22zm6.488 0H90.83v3.268h3.244V39.22z" fill="#000"/><path d="M97.317 39.22h-3.244v3.268h3.244V39.22zm6.488 0h-3.244v3.268h3.244V39.22zm6.488 0h-3.244v3.268h3.244V39.22zm6.487 0h-3.243v3.268h3.243V39.22zM16.22 42.488h-3.244v3.268h3.243v-3.268zm3.243 0H16.22v3.268h3.244v-3.268zm6.488 0h-3.244v3.268h3.244v-3.268zm6.488 0h-3.244v3.268h3.244v-3.268zm12.976 0H42.17v3.268h3.244v-3.268zm19.463 0h-3.244v3.268h3.244v-3.268zm3.244 0h-3.244v3.268h3.244v-3.268zm3.244 0h-3.244v3.268h3.244v-3.268zm3.244 0h-3.244v3.268h3.244v-3.268zm3.244 0H74.61v3.268h3.244v-3.268zm3.243 0h-3.243v3.268h3.243v-3.268zm3.244 0h-3.243v3.268h3.243v-3.268zm6.489 0h-3.245v3.268h3.244v-3.268zm6.487 0h-3.244v3.268h3.244v-3.268zm3.244 0h-3.244v3.268h3.244v-3.268zm12.976 0h-3.244v3.268h3.244v-3.268zm3.243 0h-3.243v3.268h3.243v-3.268zm3.244 0h-3.244v3.268h3.244v-3.268zM16.22 45.756h-3.244v3.269h3.243v-3.269zm12.975 0h-3.244v3.269h3.244v-3.269zm6.488 0h-3.244v3.269h3.244v-3.269zm6.487 0h-3.243v3.269h3.244v-3.269z" fill="#000"/><path d="M45.415 45.756H42.17v3.269h3.244v-3.269zm6.488 0h-3.244v3.269h3.244v-3.269z" fill="#000"/><path d="M55.146 45.756h-3.244v3.269h3.244v-3.269zm25.951 0h-3.243v3.269h3.243v-3.269zm3.244 0h-3.243v3.269h3.243v-3.269zm12.976 0h-3.244v3.269h3.244v-3.269zm9.732 0h-3.244v3.269h3.244v-3.269zm3.244 0h-3.244v3.269h3.244v-3.269zm6.487 0h-3.243v3.269h3.243v-3.269zm-84.341 3.268h-3.244v3.269h3.244v-3.269zm6.488 0h-3.244v3.269h3.244v-3.269zm3.243 0h-3.243v3.269h3.244v-3.269z" fill="#000"/><path d="M45.415 49.024H42.17v3.269h3.244v-3.269zm3.243 0h-3.243v3.269h3.243v-3.269zm3.245 0h-3.244v3.269h3.244v-3.269zm9.731 0H58.39v3.269h3.244v-3.269zm6.488 0h-3.244v3.269h3.244v-3.269zm12.975 0h-3.243v3.269h3.243v-3.269zm3.244 0h-3.243v3.269h3.243v-3.269zm3.244 0h-3.243v3.269h3.243v-3.269zm6.488 0H90.83v3.269h3.244v-3.269zm9.732 0h-3.244v3.269h3.244v-3.269zm9.732 0h-3.244v3.269h3.244v-3.269zm-90.83 3.269h-3.244v3.268h3.244v-3.268zm3.244 0h-3.244v3.268h3.244v-3.268zm9.732 0h-3.244v3.268h3.244v-3.268zm6.487 0h-3.243v3.268h3.244v-3.268z" fill="#000"/><path d="M45.415 52.293H42.17v3.268h3.244v-3.268zm6.488 0h-3.244v3.268h3.244v-3.268zm19.463 0h-3.244v3.268h3.244v-3.268zm16.219 0h-3.243v3.268h3.243v-3.268zm3.245 0h-3.245v3.268h3.244v-3.268zm3.243 0H90.83v3.268h3.244v-3.268zm9.732 0h-3.244v3.268h3.244v-3.268zm3.244 0h-3.244v3.268h3.244v-3.268zm3.244 0h-3.244v3.268h3.244v-3.268zM16.22 55.561h-3.244v3.268h3.243v-3.268zm6.487 0h-3.244v3.268h3.244v-3.268zm6.488 0h-3.244v3.268h3.244v-3.268zm3.244 0h-3.244v3.268h3.244v-3.268zm6.488 0h-3.244v3.268h3.244v-3.268zm9.731 0h-3.243v3.268h3.243v-3.268zm6.488 0h-3.244v3.268h3.244v-3.268zm3.244 0h-3.244v3.268h3.244v-3.268zm3.244 0H58.39v3.268h3.244v-3.268zm3.244 0h-3.244v3.268h3.244v-3.268zm9.732 0h-3.244v3.268h3.244v-3.268zm3.244 0H74.61v3.268h3.244v-3.268zm3.243 0h-3.243v3.268h3.243v-3.268zm9.733 0h-3.245v3.268h3.244v-3.268zm9.731 0h-3.244v3.268h3.244v-3.268zm16.219 0h-3.243v3.268h3.243v-3.268zm3.244 0h-3.244v3.268h3.244v-3.268zM16.22 58.83h-3.244v3.268h3.243V58.83zm3.243 0H16.22v3.268h3.244V58.83z" fill="#000"/><path d="M22.707 58.83h-3.244v3.268h3.244V58.83zm6.488 0h-3.244v3.268h3.244V58.83zm6.488 0h-3.244v3.268h3.244V58.83zm6.487 0h-3.243v3.268h3.244V58.83zm6.488 0h-3.243v3.268h3.243V58.83zm9.732 0h-3.244v3.268h3.244V58.83zm3.244 0H58.39v3.268h3.244V58.83zm3.244 0h-3.244v3.268h3.244V58.83zm6.488 0h-3.244v3.268h3.244V58.83zm3.244 0h-3.244v3.268h3.244V58.83zm6.487 0h-3.243v3.268h3.243V58.83zm6.488 0h-3.243v3.268h3.243V58.83zm6.488 0H90.83v3.268h3.244V58.83z" fill="#000"/><path d="M97.317 58.83h-3.244v3.268h3.244V58.83zm3.244 0h-3.244v3.268h3.244V58.83zm16.219 0h-3.243v3.268h3.243V58.83zm-94.073 3.268h-3.244v3.268h3.244v-3.268zm3.244 0h-3.244v3.268h3.244v-3.268zm29.195 0h-3.244v3.268h3.244v-3.268zm3.244 0h-3.244v3.268h3.244v-3.268zm6.488 0h-3.244v3.268h3.244v-3.268zm9.732 0h-3.244v3.268h3.244v-3.268zm3.244 0H74.61v3.268h3.244v-3.268zm6.487 0h-3.243v3.268h3.243v-3.268zm6.489 0h-3.245v3.268h3.244v-3.268zm3.243 0H90.83v3.268h3.244v-3.268zm6.488 0h-3.244v3.268h3.244v-3.268zm12.976 0h-3.244v3.268h3.244v-3.268zm-84.342 3.268h-3.244v3.268h3.244v-3.268zm6.488 0h-3.244v3.268h3.244v-3.268zm19.463 0h-3.244v3.268h3.244v-3.268zm6.488 0H58.39v3.268h3.244v-3.268zm3.244 0h-3.244v3.268h3.244v-3.268zm3.244 0h-3.244v3.268h3.244v-3.268zm6.488 0h-3.244v3.268h3.244v-3.268zm6.487 0h-3.243v3.268h3.243v-3.268zm6.488 0h-3.243v3.268h3.243v-3.268zm9.732 0h-3.244v3.268h3.244v-3.268zm6.488 0h-3.244v3.268h3.244v-3.268zm3.244 0h-3.244v3.268h3.244v-3.268zm9.731 0h-3.243v3.268h3.243v-3.268zm-97.317 3.268H16.22v3.269h3.244v-3.269zm6.488 0h-3.244v3.269h3.244v-3.269zm3.244 0h-3.244v3.269h3.244v-3.269zm16.22 0H42.17v3.269h3.244v-3.269zm19.463 0h-3.244v3.269h3.244v-3.269zm6.488 0h-3.244v3.269h3.244v-3.269zm3.244 0h-3.244v3.269h3.244v-3.269zm3.244 0H74.61v3.269h3.244v-3.269zm3.243 0h-3.243v3.269h3.243v-3.269zm3.244 0h-3.243v3.269h3.243v-3.269zm6.489 0h-3.245v3.269h3.244v-3.269zm9.731 0h-3.244v3.269h3.244v-3.269zm9.732 0h-3.244v3.269h3.244v-3.269zm6.487 0h-3.243v3.269h3.243v-3.269zm3.244 0h-3.244v3.269h3.244v-3.269zM16.22 71.902h-3.244v3.269h3.243v-3.269zm19.463 0h-3.244v3.269h3.244v-3.269zm3.244 0h-3.244v3.269h3.244v-3.269z" fill="#000"/><path d="M42.17 71.902h-3.243v3.269h3.244v-3.269z" fill="#000"/><path d="M45.415 71.902H42.17v3.269h3.244v-3.269zm3.243 0h-3.243v3.269h3.243v-3.269zm3.245 0h-3.244v3.269h3.244v-3.269z" fill="#000"/><path d="M55.146 71.902h-3.244v3.269h3.244v-3.269zm12.976 0h-3.244v3.269h3.244v-3.269zm6.488 0h-3.244v3.269h3.244v-3.269zm6.487 0h-3.243v3.269h3.243v-3.269zm3.244 0h-3.243v3.269h3.243v-3.269zm3.244 0h-3.243v3.269h3.243v-3.269zm6.488 0H90.83v3.269h3.244v-3.269zm9.732 0h-3.244v3.269h3.244v-3.269zm3.244 0h-3.244v3.269h3.244v-3.269zm3.244 0h-3.244v3.269h3.244v-3.269zm6.487 0h-3.243v3.269h3.243v-3.269zM22.707 75.17h-3.244v3.27h3.244v-3.27zm3.244 0h-3.244v3.27h3.244v-3.27zm3.244 0h-3.244v3.27h3.244v-3.27zm3.244 0h-3.244v3.27h3.244v-3.27zm9.731 0h-3.243v3.27h3.244v-3.27z" fill="#000"/><path d="M45.415 75.17H42.17v3.27h3.244v-3.27zm6.488 0h-3.244v3.27h3.244v-3.27zm9.731 0H58.39v3.27h3.244v-3.27zm16.22 0H74.61v3.27h3.244v-3.27zm3.243 0h-3.243v3.27h3.243v-3.27zm3.244 0h-3.243v3.27h3.243v-3.27zm12.976 0h-3.244v3.27h3.244v-3.27zm6.488 0h-3.244v3.27h3.244v-3.27zm9.732 0h-3.244v3.27h3.244v-3.27zM16.22 78.439h-3.244v3.268h3.243V78.44zm3.243 0H16.22v3.268h3.244V78.44zm6.488 0h-3.244v3.268h3.244V78.44zm9.732 0h-3.244v3.268h3.244V78.44zm3.244 0h-3.244v3.268h3.244V78.44z" fill="#000"/><path d="M42.17 78.439h-3.243v3.268h3.244V78.44zm9.733 0h-3.244v3.268h3.244V78.44zm16.219 0h-3.244v3.268h3.244V78.44zm6.488 0h-3.244v3.268h3.244V78.44zm3.244 0H74.61v3.268h3.244V78.44zm9.731 0h-3.243v3.268h3.243V78.44zm9.732 0h-3.244v3.268h3.244V78.44zm9.732 0h-3.244v3.268h3.244V78.44zm9.731 0h-3.243v3.268h3.243V78.44zM16.22 81.707h-3.244v3.269h3.243v-3.269zm6.487 0h-3.244v3.269h3.244v-3.269zm3.244 0h-3.244v3.269h3.244v-3.269zm6.488 0h-3.244v3.269h3.244v-3.269zm6.488 0h-3.244v3.269h3.244v-3.269zm3.243 0h-3.243v3.269h3.244v-3.269zm12.976 0h-3.244v3.269h3.244v-3.269zm3.244 0h-3.244v3.269h3.244v-3.269zm3.244 0H58.39v3.269h3.244v-3.269zm3.244 0h-3.244v3.269h3.244v-3.269zm3.244 0h-3.244v3.269h3.244v-3.269zm3.244 0h-3.244v3.269h3.244v-3.269zm6.488 0H74.61v3.269h3.244v-3.269zm6.487 0h-3.243v3.269h3.243v-3.269zm6.489 0h-3.245v3.269h3.244v-3.269zm6.487 0h-3.244v3.269h3.244v-3.269zm3.244 0h-3.244v3.269h3.244v-3.269zm9.732 0h-3.244v3.269h3.244v-3.269zm6.487 0h-3.243v3.269h3.243v-3.269zm3.244 0h-3.244v3.269h3.244v-3.269zM16.22 84.976h-3.244v3.268h3.243v-3.268zm6.487 0h-3.244v3.268h3.244v-3.268zm3.244 0h-3.244v3.268h3.244v-3.268zm6.488 0h-3.244v3.268h3.244v-3.268zm3.244 0h-3.244v3.268h3.244v-3.268zm6.487 0h-3.243v3.268h3.244v-3.268zm16.22 0h-3.244v3.268h3.244v-3.268zm3.244 0H58.39v3.268h3.244v-3.268zm6.488 0h-3.244v3.268h3.244v-3.268zm3.244 0h-3.244v3.268h3.244v-3.268zm9.731 0h-3.243v3.268h3.243v-3.268zm3.244 0h-3.243v3.268h3.243v-3.268zm3.244 0h-3.243v3.268h3.243v-3.268zm22.708 0h-3.244v3.268h3.244v-3.268zm6.487 0h-3.243v3.268h3.243v-3.268zM16.22 88.244h-3.244v3.268h3.243v-3.268zm12.975 0h-3.244v3.268h3.244v-3.268zm3.244 0h-3.244v3.268h3.244v-3.268zm22.707 0h-3.244v3.268h3.244v-3.268zm3.244 0h-3.244v3.268h3.244v-3.268zm6.488 0h-3.244v3.268h3.244v-3.268zm3.244 0h-3.244v3.268h3.244v-3.268zm6.488 0h-3.244v3.268h3.244v-3.268zm6.487 0h-3.243v3.268h3.243v-3.268zm3.244 0h-3.243v3.268h3.243v-3.268zm3.244 0h-3.243v3.268h3.243v-3.268zm16.22 0h-3.244v3.268h3.244v-3.268zm3.244 0h-3.244v3.268h3.244v-3.268zm3.244 0h-3.244v3.268h3.244v-3.268zm3.244 0h-3.244v3.268h3.244v-3.268zM16.22 91.512h-3.244v3.269h3.243v-3.269zm6.487 0h-3.244v3.269h3.244v-3.269zm12.976 0h-3.244v3.269h3.244v-3.269zm9.732 0H42.17v3.269h3.244v-3.269zm9.731 0h-3.244v3.269h3.244v-3.269zm6.488 0H58.39v3.269h3.244v-3.269zm3.244 0h-3.244v3.269h3.244v-3.269zm6.488 0h-3.244v3.269h3.244v-3.269zm6.488 0H74.61v3.269h3.244v-3.269zm9.731 0h-3.243v3.269h3.243v-3.269zm6.488 0H90.83v3.269h3.244v-3.269z" fill="#000"/><path d="M97.317 91.512h-3.244v3.269h3.244v-3.269zm3.244 0h-3.244v3.269h3.244v-3.269zm3.244 0h-3.244v3.269h3.244v-3.269zm3.244 0h-3.244v3.269h3.244v-3.269zm3.244 0h-3.244v3.269h3.244v-3.269zm9.731 0h-3.244v3.269h3.244v-3.269zM42.17 94.78h-3.243v3.27h3.244v-3.27zm22.708 0h-3.244v3.27h3.244v-3.27zm3.244 0h-3.244v3.27h3.244v-3.27zm3.244 0h-3.244v3.27h3.244v-3.27zm3.244 0h-3.244v3.27h3.244v-3.27zm3.244 0H74.61v3.27h3.244v-3.27zm3.243 0h-3.243v3.27h3.243v-3.27zm6.488 0h-3.243v3.27h3.243v-3.27z" fill="#000"/><path d="M94.073 94.78H90.83v3.27h3.244v-3.27zm12.976 0h-3.244v3.27h3.244v-3.27zm6.488 0h-3.244v3.27h3.244v-3.27zm6.487 0h-3.244v3.27h3.244v-3.27zM16.22 98.049h-3.244v3.268h3.243v-3.268zm3.243 0H16.22v3.268h3.244v-3.268z" fill="#000"/><path d="M22.707 98.049h-3.244v3.268h3.244v-3.268zm3.244 0h-3.244v3.268h3.244v-3.268zm3.244 0h-3.244v3.268h3.244v-3.268zm3.244 0h-3.244v3.268h3.244v-3.268zm3.244 0h-3.244v3.268h3.244v-3.268zm6.487 0h-3.243v3.268h3.244v-3.268zm9.733 0h-3.244v3.268h3.244v-3.268z" fill="#000"/><path d="M55.146 98.049h-3.244v3.268h3.244v-3.268zm19.464 0h-3.244v3.268h3.244v-3.268zm6.487 0h-3.243v3.268h3.243v-3.268zm3.244 0h-3.243v3.268h3.243v-3.268zm6.489 0h-3.245v3.268h3.244v-3.268zm3.243 0H90.83v3.268h3.244v-3.268zm6.488 0h-3.244v3.268h3.244v-3.268zm6.488 0h-3.244v3.268h3.244v-3.268zm9.731 0h-3.243v3.268h3.243v-3.268zm-100.56 3.268h-3.244v3.268h3.243v-3.268zm19.463 0h-3.244v3.268h3.244v-3.268z" fill="#000"/><path d="M51.903 101.317h-3.244v3.268h3.244v-3.268zm9.731 0H58.39v3.268h3.244v-3.268zm16.22 0H74.61v3.268h3.244v-3.268zm3.243 0h-3.243v3.268h3.243v-3.268zm3.244 0h-3.243v3.268h3.243v-3.268zm6.489 0h-3.245v3.268h3.244v-3.268zm3.243 0H90.83v3.268h3.244v-3.268zm12.976 0h-3.244v3.268h3.244v-3.268zm3.244 0h-3.244v3.268h3.244v-3.268zm3.244 0h-3.244v3.268h3.244v-3.268zm-97.317 3.268h-3.244v3.269h3.243v-3.269zm6.487 0h-3.244v3.269h3.244v-3.269zm3.244 0h-3.244v3.269h3.244v-3.269zm3.244 0h-3.244v3.269h3.244v-3.269zm6.488 0h-3.244v3.269h3.244v-3.269zm6.487 0h-3.243v3.269h3.244v-3.269z" fill="#000"/><path d="M45.415 104.585H42.17v3.269h3.244v-3.269zm3.243 0h-3.243v3.269h3.243v-3.269zm3.245 0h-3.244v3.269h3.244v-3.269zm16.219 0h-3.244v3.269h3.244v-3.269zm3.244 0h-3.244v3.269h3.244v-3.269zm6.488 0H74.61v3.269h3.244v-3.269zm16.219 0H90.83v3.269h3.244v-3.269z" fill="#000"/><path d="M97.317 104.585h-3.244v3.269h3.244v-3.269zm3.244 0h-3.244v3.269h3.244v-3.269zm3.244 0h-3.244v3.269h3.244v-3.269zm3.244 0h-3.244v3.269h3.244v-3.269zm9.731 0h-3.243v3.269h3.243v-3.269zm3.244 0h-3.244v3.269h3.244v-3.269zM16.22 107.854h-3.244v3.268h3.243v-3.268zm6.487 0h-3.244v3.268h3.244v-3.268zm3.244 0h-3.244v3.268h3.244v-3.268zm3.244 0h-3.244v3.268h3.244v-3.268zm6.488 0h-3.244v3.268h3.244v-3.268zm6.487 0h-3.243v3.268h3.244v-3.268zm12.976 0h-3.244v3.268h3.244v-3.268zm3.244 0h-3.244v3.268h3.244v-3.268zm3.244 0H58.39v3.268h3.244v-3.268zm3.244 0h-3.244v3.268h3.244v-3.268zm6.488 0h-3.244v3.268h3.244v-3.268zm6.488 0H74.61v3.268h3.244v-3.268zm3.243 0h-3.243v3.268h3.243v-3.268zm9.733 0h-3.245v3.268h3.244v-3.268zm3.243 0H90.83v3.268h3.244v-3.268z" fill="#000"/><path d="M97.317 107.854h-3.244v3.268h3.244v-3.268zm6.488 0h-3.244v3.268h3.244v-3.268zm3.244 0h-3.244v3.268h3.244v-3.268zm3.244 0h-3.244v3.268h3.244v-3.268zm3.244 0h-3.244v3.268h3.244v-3.268zm6.487 0h-3.244v3.268h3.244v-3.268zM16.22 111.122h-3.244v3.268h3.243v-3.268zm6.487 0h-3.244v3.268h3.244v-3.268zm3.244 0h-3.244v3.268h3.244v-3.268zm3.244 0h-3.244v3.268h3.244v-3.268zm6.488 0h-3.244v3.268h3.244v-3.268zm6.487 0h-3.243v3.268h3.244v-3.268zm6.488 0h-3.243v3.268h3.243v-3.268zm9.732 0h-3.244v3.268h3.244v-3.268zm3.244 0H58.39v3.268h3.244v-3.268zm3.244 0h-3.244v3.268h3.244v-3.268zm3.244 0h-3.244v3.268h3.244v-3.268zm12.975 0h-3.243v3.268h3.243v-3.268zm6.488 0h-3.243v3.268h3.243v-3.268zm3.245 0h-3.245v3.268h3.244v-3.268zm6.487 0h-3.244v3.268h3.244v-3.268zm3.244 0h-3.244v3.268h3.244v-3.268zm9.732 0h-3.244v3.268h3.244v-3.268zm3.244 0h-3.244v3.268h3.244v-3.268zM16.22 114.39h-3.244v3.268h3.243v-3.268zm19.463 0h-3.244v3.268h3.244v-3.268zm6.487 0h-3.243v3.268h3.244v-3.268z" fill="#000"/><path d="M45.415 114.39H42.17v3.268h3.244v-3.268zm9.731 0h-3.244v3.268h3.244v-3.268zm3.244 0h-3.244v3.268h3.244v-3.268zm9.732 0h-3.244v3.268h3.244v-3.268zm3.244 0h-3.244v3.268h3.244v-3.268zm3.244 0h-3.244v3.268h3.244v-3.268zm3.244 0H74.61v3.268h3.244v-3.268zm6.487 0h-3.243v3.268h3.243v-3.268zm19.464 0h-3.244v3.268h3.244v-3.268zm6.488 0h-3.244v3.268h3.244v-3.268zm3.244 0h-3.244v3.268h3.244v-3.268zm-97.317 3.269h-3.244v3.268h3.243v-3.268zm3.243 0H16.22v3.268h3.244v-3.268z" fill="#000"/><path d="M22.707 117.659h-3.244v3.268h3.244v-3.268zm3.244 0h-3.244v3.268h3.244v-3.268zm3.244 0h-3.244v3.268h3.244v-3.268zm3.244 0h-3.244v3.268h3.244v-3.268zm3.244 0h-3.244v3.268h3.244v-3.268zm6.487 0h-3.243v3.268h3.244v-3.268z" fill="#000"/><path d="M45.415 117.659H42.17v3.268h3.244v-3.268zm3.243 0h-3.243v3.268h3.243v-3.268zm6.488 0h-3.244v3.268h3.244v-3.268zm6.488 0H58.39v3.268h3.244v-3.268zm12.976 0h-3.244v3.268h3.244v-3.268zm12.975 0h-3.243v3.268h3.243v-3.268zm3.245 0h-3.245v3.268h3.244v-3.268zm3.243 0H90.83v3.268h3.244v-3.268zm22.707 0h-3.243v3.268h3.243v-3.268z" fill="#000"/></svg>